<svg xmlns="http://www.w3.org/2000/svg" viewBox="0 0 58.75 58.75"><title>Asset 4</title><g id="Layer_2" data-name="Layer 2"><g id="text"><path d="M0,58.75V0H58.75V58.75ZM3.67,55H55V3.75H3.67Z"/><path d="M37.84,44.34H30.9c-.64-2.13-1.32-4.23-1.9-6.35a1.16,1.16,0,0,0-1.36-1c-2.05,0-4.09,0-6.14,0-.82,0-1.23.19-1.44,1.06-.43,1.85-1,3.68-1.54,5.5-.1.33-.5.79-.78.8-2,.06-4,0-6.14,0l2.48-8.09c2-6.54,4-13.07,6-19.62.23-.79.55-1.12,1.41-1.1,2.17.06,4.35,0,6.53,0a1,1,0,0,1,1.22.84C32.07,25.68,34.94,34.94,37.84,44.34ZM24.51,20.63l-.22,0-3,11.41h6.39Z"/><path d="M40.56,23.56h6.37V44.28H40.56Z"/><path d="M43.63,20.88a3.26,3.26,0,1,1,.1-6.52,3.27,3.27,0,1,1-.1,6.52Z"/></g></g></svg>