<?xml version="1.0" encoding="utf-8"?>
<!-- Generator: Adobe Illustrator 22.1.0, SVG Export Plug-In . SVG Version: 6.00 Build 0)  -->
<svg version="1.1" id="Layer_1" xmlns="http://www.w3.org/2000/svg" xmlns:xlink="http://www.w3.org/1999/xlink" x="0px" y="0px"
	 viewBox="0 0 61.2 36.9" style="enable-background:new 0 0 61.2 36.9;" xml:space="preserve">
<title>awsIcon</title>
<g id="Layer_2_2_">
	<g id="icons">
		<path d="M31.8,6.4c-0.9,3.7-1.8,7.4-2.6,11.1c-0.3,1.1-0.4,2-2,2c-1.2,0.2-2.4-0.7-2.6-1.9C23.1,12.5,21.5,7.4,20,2.3
			c3.1-0.7,3.4-0.6,4,2.1c0.8,3.7,1.9,7.3,3.2,10.8c0.9-3.7,1.8-7.3,2.6-10.9c0.3-1.3,0.5-2.3,2.3-2.3c1.8,0,1.9,1.1,2.2,2.3
			c0.8,3.8,1.8,7.5,3.1,11.1c0.5-1.6,0.9-3.2,1.4-4.9c0.6-2,1.2-4.1,1.6-6.1c0.4-2.3,1.6-2.7,3.7-2.1c0,0.4-0.1,0.9-0.2,1.3
			c-1.5,4.8-3,9.6-4.4,14.4c-0.4,1.4-1.2,1.7-2.5,1.7c-1.3,0-1.7-0.6-2-1.8C34,14,33.1,10.2,32.2,6.5L31.8,6.4z"/>
		<path d="M55.4,28.8c-6,5-13.6,7.8-21.4,8c-11.8,0.9-23.4-3.1-32-11.2c8.2,4.3,17.2,6.9,26.4,7.5C37.6,33.5,46.8,32,55.4,28.8z"/>
		<path d="M14.6,9.3c0.8-3.6-0.8-5.6-4.6-5.2C8.4,4.4,6.7,4.7,5.1,5.2C4.6,3.9,4.7,2.7,6,2.5c2.5-0.6,5-0.8,7.6-0.7
			c2.5,0.2,4.4,2.4,4.2,5c0,0,0,0,0,0c0,2.3,0,4.6,0,6.9c0,1,0.2,2,0.6,3c0.5,1.1,0.5,1.8-0.7,2.5s-1.8-0.1-2.3-1l-0.1,0
			c-2,0.8-4,1.4-6.1,1.7c-2.6,0.4-5-1.3-5.5-3.9c0-0.2-0.1-0.5-0.1-0.7c-0.3-2.9,1.8-5.6,4.8-5.9C10.5,9.2,12.6,9.2,14.6,9.3z
			 M11.2,11.4c-0.6,0.1-1.2,0.2-1.8,0.3c-1.6,0.2-2.6,1.7-2.4,3.2c0,0.2,0.1,0.3,0.1,0.5c0.2,1.4,1.6,2.3,3,2.1c0.1,0,0.2,0,0.3-0.1
			c1.1-0.1,2.2-0.6,3.1-1.3c0.7-1.1,1.1-2.4,1.1-3.7c0-0.2-1.5-0.6-2.3-0.9C11.9,11.4,11.6,11.4,11.2,11.4z"/>
		<path d="M57.4,4.8c-1.8-0.4-3.5-0.6-5.3-0.8c-1.4,0-2.8,0.4-3,2.1c-0.2,1.7,1.1,2.2,2.3,2.6c1.1,0.5,2.6,0.8,3.9,1.3
			c2,0.6,3.3,2.4,3.3,4.4c0,2-1.2,3.8-3,4.6c-2.8,1.3-6.1,1.2-8.9-0.2c-0.7-0.3-0.9-1.5-1.6-2.8c2.3,0.5,4,1,5.7,1.2
			c0.9,0.1,1.9,0,2.8-0.4c0.8-0.4,1.4-1.1,1.7-2c-0.1-0.9-0.7-1.7-1.4-2.1c-1.2-0.6-2.4-1-3.6-1.3c-3.1-1-4.7-3.1-4.4-5.5
			c0.5-2.8,3.1-4.8,5.9-4.6c1.4,0,2.7,0.2,4,0.5c1.1-0.1,2,0.8,2,1.8C57.7,4,57.6,4.4,57.4,4.8z"/>
		<path d="M50.3,25.8c2.8-1.7,6.2-2.3,9.4-1.5c0.4,0,1,1,1,1.5c0.1,3.2-1.4,6.3-3.9,8.3c0.5-1.7,1.1-3.3,1.6-4.9
			c0.6-2.4,0-3.3-2.6-3.4L50.3,25.8z"/>
	</g>
</g>
</svg>
