<svg xmlns="http://www.w3.org/2000/svg" viewBox="0 0 52.26 59.04"><title>Asset 5</title><g id="Layer_2" data-name="Layer 2"><g id="text"><path d="M45.75,59H6.51C5.08,58.5,4.68,57.41,4.71,56c0-3.5,0-7,0-10.51,0-.4-.11-.51-.5-.5a7.1,7.1,0,0,1-1.73-.12A3.18,3.18,0,0,1,0,41.49Q0,33,0,24.56a4.14,4.14,0,0,1,.06-.7A3.22,3.22,0,0,1,1.6,21.6a4.39,4.39,0,0,1,2.46-.47c.75,0,.66.09.66-.64q0-8.94,0-17.87A2.4,2.4,0,0,1,5.41.69,8.17,8.17,0,0,1,6.51,0H35.37A6.17,6.17,0,0,1,36,.59q2.53,2.87,5.06,5.75C43.05,8.57,45,10.82,47,13a2.26,2.26,0,0,1,.58,1.58c0,2,0,4.06,0,6.08,0,.36.1.45.45.45a8,8,0,0,1,2,.16,3.23,3.23,0,0,1,2.32,3.32v10c0,2.3,0,4.59,0,6.88a3.2,3.2,0,0,1-2.46,3.32,8.47,8.47,0,0,1-1.68.14c-.58,0-.59,0-.59.59,0,3.64,0,7.29,0,10.93a2.38,2.38,0,0,1-.69,1.89A7.22,7.22,0,0,1,45.75,59ZM26.14,21.13H44.71c.44,0,.56-.12.55-.55,0-1.56,0-3.11,0-4.67,0-.62,0-.62-.61-.62H35.31c-1.06,0-1.45-.39-1.45-1.45V2.9c0-.59,0-.59-.58-.59q-12.85,0-25.7,0c-.45,0-.58.12-.58.58q0,8.84,0,17.68c0,.57,0,.57.6.57Zm0,23.82H7.57c-.45,0-.58.12-.57.58,0,3.34,0,6.69,0,10,0,.43.11.56.55.56H44.71c.43,0,.55-.12.55-.56q0-5,0-10c0-.61,0-.61-.61-.61Zm8.4-7.52a.45.45,0,0,0-.09.16c-.19.79-.39,1.58-.58,2.38-.15.63-.15.64.47.87a11.74,11.74,0,0,0,6.76.52,5.3,5.3,0,0,0,4.31-3.69,4.84,4.84,0,0,0-1.51-5.06A12,12,0,0,0,41,31.05a17.75,17.75,0,0,1-2.21-1,1.82,1.82,0,0,1-.78-.93c-.31-.88.22-1.65,1.28-1.93a7.22,7.22,0,0,1,4.37.51c.29.11.41.12.49-.21.19-.78.4-1.55.64-2.32.12-.38,0-.55-.36-.68a11.66,11.66,0,0,0-3.55-.65,8.33,8.33,0,0,0-4.65,1.11,4.61,4.61,0,0,0-.76,7.4A9.19,9.19,0,0,0,38.33,34c.69.28,1.4.55,2.07.88a1.91,1.91,0,0,1,1.19,1.47,1.79,1.79,0,0,1-1.62,2,6.71,6.71,0,0,1-2.89-.09C36.23,38,35.4,37.69,34.55,37.43Zm-9.84,4.18a8.36,8.36,0,0,0,4.82-1.19,5,5,0,0,0,1.88-6,5.63,5.63,0,0,0-3-2.82c-1.13-.53-2.29-1-3.42-1.55a1.45,1.45,0,0,1-.9-1.39,1.42,1.42,0,0,1,1-1.32,3.4,3.4,0,0,1,1-.28,7.86,7.86,0,0,1,3.77.61c.29.12.42.16.51-.23.17-.75.4-1.48.62-2.22.16-.55.16-.57-.4-.77a11,11,0,0,0-3.42-.62A8.2,8.2,0,0,0,22.22,25a4.62,4.62,0,0,0-.35,7.49,12.38,12.38,0,0,0,3,1.62,12.86,12.86,0,0,1,2.14,1A1.59,1.59,0,0,1,26.87,38a3.72,3.72,0,0,1-1.43.39,8.82,8.82,0,0,1-4.38-.88c-.31-.14-.42-.09-.49.22-.19.83-.37,1.66-.6,2.47-.09.33,0,.45.28.57A12,12,0,0,0,24.71,41.61Zm-10.93,0A12.14,12.14,0,0,0,17.63,41c.29-.1.34-.25.29-.52-.14-.71-.26-1.42-.41-2.12s-.11-.55-.64-.39a8.28,8.28,0,0,1-4.83.06A4.4,4.4,0,0,1,9.33,35.8a6.86,6.86,0,0,1-.47-5,4.68,4.68,0,0,1,3.58-3.55,7.73,7.73,0,0,1,4.54.27c.37.12.47,0,.55-.3.19-.78.38-1.55.59-2.32.08-.28,0-.42-.27-.49A15.65,15.65,0,0,0,16.22,24a12.28,12.28,0,0,0-5.68.33,8.15,8.15,0,0,0-5,4.14,9.92,9.92,0,0,0-.72,7.06,7.4,7.4,0,0,0,3.78,5A10.42,10.42,0,0,0,13.78,41.61Z"/></g></g></svg>