<svg xmlns="http://www.w3.org/2000/svg" viewBox="0 0 42.81 58.23"><title>Asset 7</title><g id="Layer_2" data-name="Layer 2"><g id="text"><path d="M42.81,31.17c-.26.33-.47.86-.79.95a3.68,3.68,0,0,1-1.68,0,3.94,3.94,0,0,1-1-.6c.08,2.5.18,4.91.24,7.32A23.51,23.51,0,0,1,38,48.59a41.48,41.48,0,0,1-2.4,4.33,19.64,19.64,0,0,1,1.88,2.42,1.63,1.63,0,0,1-.75,2.45,1.55,1.55,0,0,1-2.2-.38,19.19,19.19,0,0,0-1.61-1.75,1.28,1.28,0,0,0-1.13-.19c-4.12,1.91-8.49,2.28-12.94,2.15a22.69,22.69,0,0,1-7.17-1.47,2.33,2.33,0,0,0-1.7.37,19.11,19.11,0,0,0-2.12,1.71H6.17c-1.56-1.41-1.6-2.34-.1-3.68.43-.39.93-.7,1.43-1.07-.35-.35-.69-.66-1-1a10.27,10.27,0,0,1-2.94-7.34c.11-3.91.12-7.82.17-11.73V32a1.53,1.53,0,0,0-.3.13C1.6,33.4,1.31,33.35,0,31.51v-1c1-1.26,2.49-1.42,4-1.85-.73-5.73-1.65-11.47-.2-17.23L3,11A4,4,0,0,1,.63,6.84,3.66,3.66,0,0,1,3.84,3.36a17.55,17.55,0,0,1,3.44.28,1.56,1.56,0,0,0,.87-.1A18.32,18.32,0,0,1,15.4.68C17.11.4,18.83.22,20.55,0H25c.28.06.55.13.83.17a14.45,14.45,0,0,1,6,1.84,4,4,0,0,0,3.71.52A4,4,0,0,1,40.6,4.9a4,4,0,0,1-2.09,5.23c-.45.25-.47.46-.37.94a26.06,26.06,0,0,1,.73,4.19c.15,3.47.16,7,.22,10.43,0,.82,0,1.64,0,2.4,1.42.48,2.83.53,3.72,1.71ZM38.58,29h-.07c0-3.28,0-6.56,0-9.84a32.85,32.85,0,0,0-1.15-8.7C35.84,5.11,32.49,1.84,27,1A33.35,33.35,0,0,0,12.75,2C8.19,3.24,5.63,6.42,4.53,10.85a30.77,30.77,0,0,0-.67,11.47,55.45,55.45,0,0,1,.55,10.14c-.19,4.33-.14,8.67-.21,13a9.46,9.46,0,0,0,3.26,7.09,6.27,6.27,0,0,0,1.43.76c.45.23,1.06.36,1.31.74,1,1.45,2.54,1.87,4.08,2.27A30,30,0,0,0,27,56.41a16.11,16.11,0,0,0,7.63-3.71,10,10,0,0,0,2.84-4.32A26.53,26.53,0,0,0,39,37.7ZM3.87,10.69c.1-.29.18-.53.27-.76.29-.71.59-1.37-.14-2.06-.2-.18-.14-.87.06-1.15a1.92,1.92,0,0,1,1.07-.5c.19,0,.42.08.62.12l1.52-2a4.74,4.74,0,0,0-4.69.21A3.2,3.2,0,0,0,1.26,7.91,3.41,3.41,0,0,0,3.87,10.69ZM35.78,5.47c.66-.26,1.3-.44,1.78.24s.16,1.22-.32,1.75a.7.7,0,0,0-.1.57c.19.58.44,1.15.68,1.76a3.47,3.47,0,0,0,2.42-2.88,3.24,3.24,0,0,0-1.52-3.38,4.59,4.59,0,0,0-4.51,0ZM11,55.44c-1.62-2.16-2.62-2.38-4.45-.9-1.3,1-1.58,2-.87,2.79L7,55.46l.2.15c-.32.5-.65,1-1,1.49s-.09.71.4.88c.74.25,1.24-.17,1.77-.57Zm21.59-.63,2.12,2.31c.18.18.36.44.57.49a5.44,5.44,0,0,0,1.14,0,2.87,2.87,0,0,0-.05-.93,11.42,11.42,0,0,0-.67-1.3l.24-.13L37,57.19c.78-.92.35-2.33-1.06-3.43C34.72,52.8,33.78,53.12,32.59,54.81ZM.75,31.9c.41.79.65.9,1.35.65C3.62,32,4.15,31,3.8,29.1A5.23,5.23,0,0,0,.58,30.36c-.23.24-.17.77-.28,1.3l1.21-.56.09.18ZM39.3,28.42c-.29,2.2.13,3.12,1.53,3.56.54.17,1.06.16,1.32-.55l-1-.8c.17,0,.24-.08.27-.06l1,.53c.37-.78.26-1.35-.48-1.7S40.23,28.76,39.3,28.42Z"/><path d="M23.63,17.71c0,.68,0,1.3,0,1.92s-.08,1.22-.8,1.42a1.28,1.28,0,0,1-1.7-.62,5.45,5.45,0,0,1-.51.47,1.17,1.17,0,0,1-2-.75,17,17,0,0,1,0-2.48s0,0-.08,0c-.86,0-1.61-.14-1.9-1.08a1.89,1.89,0,0,1,1-2.18c.43-.29.85-.48,1-1.13.22-.87,1.52-1.32,2.88-1.19a1.73,1.73,0,0,1,1.78,1.48c.07.21.36.38.59.5a2.68,2.68,0,0,1,1.65,1.83,1.39,1.39,0,0,1-1.38,1.81Zm.45-.2c.32-.24.87-.44,1.05-.82a1.48,1.48,0,0,0-.63-1.87c-.52-.37-1.06-1.05-1.79-.55a3.42,3.42,0,0,1-3.49.23,1.78,1.78,0,0,0-2.32,1.33,1.16,1.16,0,0,0,1.31,1.45,5.53,5.53,0,0,0,1.66-.35,3,3,0,0,1,2.55.11A11.63,11.63,0,0,0,24.08,17.51ZM21,17a14.2,14.2,0,0,0-1.46.4.88.88,0,0,0-.51.47,7,7,0,0,0-.16,2,1.39,1.39,0,0,0,.82,1A.92.92,0,0,0,20.85,20C21,19,21,18,21,17Zm.37,0c0,1.19,0,2.18,0,3.16a1.09,1.09,0,0,0,.78.7c.31,0,1-.25,1-.44a6,6,0,0,0-.1-2.51C22.94,17.43,22.08,17.27,21.4,16.93Z"/><path d="M13.91,3.57a5.44,5.44,0,0,1,5.6,5.34A5.57,5.57,0,0,1,8.37,9,5.42,5.42,0,0,1,13.91,3.57Zm0,.3a5.12,5.12,0,0,0-5.26,5A5.15,5.15,0,0,0,14,14a5.16,5.16,0,0,0,5.23-5.09A5.13,5.13,0,0,0,14,3.87Z"/><path d="M27.67,13.76A5.53,5.53,0,0,1,22,8.49a5.58,5.58,0,0,1,11.16-.25A5.23,5.23,0,0,1,27.67,13.76Zm-5.4-5.45a5.21,5.21,0,0,0,5.29,5.15,5,5,0,0,0,5.28-5,5.29,5.29,0,0,0-10.57-.15Z"/><path d="M12.85,9.23A1.75,1.75,0,0,1,11.06,11,1.8,1.8,0,0,1,9.17,9.22,1.83,1.83,0,0,1,11,7.43,1.8,1.8,0,0,1,12.85,9.23Z"/><path d="M24.73,7a1.79,1.79,0,0,1,1.81,1.77,1.81,1.81,0,0,1-1.88,1.8,1.88,1.88,0,0,1-1.84-1.78A1.86,1.86,0,0,1,24.73,7Z"/></g></g></svg>