<svg xmlns="http://www.w3.org/2000/svg" viewBox="0 0 43.97 62.37"><title>Asset 9</title><g id="Layer_2" data-name="Layer 2"><g id="text"><path d="M0,12.66H44c-.2,2.36-.39,4.65-.59,6.94l-1.8,20Q40.83,48,40.11,56.4a1.45,1.45,0,0,1-1.26,1.49c-5.31,1.43-10.61,2.93-15.93,4.36a3.9,3.9,0,0,1-1.92,0c-5.28-1.42-10.54-2.92-15.82-4.34a1.52,1.52,0,0,1-1.35-1.55Q2.9,45.2,1.89,34.05,1,24.23.12,14.42C.07,13.88,0,13.33,0,12.66ZM9.69,38.5h19c-.19,2.3-.35,4.4-.58,6.49a1.15,1.15,0,0,1-.71.72q-2.52.75-5.09,1.39a2.44,2.44,0,0,1-1.14,0c-1.52-.38-3-.83-4.53-1.21a1,1,0,0,1-.93-1.1c-.05-1.23-.22-2.45-.34-3.63H9.92c.23,2.62.5,5.15.65,7.68a1.25,1.25,0,0,0,1.13,1.33c3.25.87,6.48,1.78,9.73,2.66a2.25,2.25,0,0,0,1.12.06c3.36-.9,6.71-1.81,10.05-2.79a1.34,1.34,0,0,0,.77-.93c.5-5.06,1-10.12,1.4-15.18,0-.33,0-.67,0-1.11-3.43,0-6.71,0-10,0-3.05,0-6.1.08-9.15.08-.34,0-1-.27-1-.48-.21-1.68-.32-3.38-.47-5.2h1.55l18.42.12c.51,0,1.18.19,1.25-.65.14-1.62.26-3.24.39-4.86H8.19C8.69,27.44,9.18,32.88,9.69,38.5Z"/><path d="M25.5,8.43H22.8V.33c2.54-1,3.67.57,4.63,2.86,1.07-2.08,2-4,4.68-2.85V8.41H29.43V4.89l-.28-.1L27.44,7.33l-1.7-2.55-.24.06Z"/><path d="M4.49.2h2.7V2.8H9.77V.19h2.72V8.4H9.84L9.73,5.76H7.24V8.42H4.49Z"/><path d="M19.08,8.44H16.23V2.91H13.87V.2h7.61V2.8l-2.4.14Z"/><path d="M36.36.2V5.65h3.86V8.44H33.63V.2Z"/></g></g></svg>