<?xml version="1.0" encoding="utf-8"?>
<!-- Generator: Adobe Illustrator 22.1.0, SVG Export Plug-In . SVG Version: 6.00 Build 0)  -->
<svg version="1.1" id="Layer_1" xmlns="http://www.w3.org/2000/svg" xmlns:xlink="http://www.w3.org/1999/xlink" x="0px" y="0px"
	 viewBox="0 0 58.8 57.2" style="enable-background:new 0 0 58.8 57.2;" xml:space="preserve">
<title>idIcon</title>
<g id="Layer_2_2_">
	<g id="icons">
		<path d="M58.8,57.2H0V0h58.8V57.2z M45.4,43.7V13h-6.8v11c-0.8-0.6-1.7-1.1-2.7-1.5c-3.8-1.4-8-0.2-10.5,3
			C22.4,30,22.2,35.8,25,40.3c2.6,4,8,5.1,12,2.5c0.3-0.2,0.5-0.4,0.8-0.6c0.5-0.4,0.9-0.9,1.4-1.4l0.4,2.8H45.4z M13.4,43.7H20
			V14.6h-6.7V43.7z"/>
		<path d="M38.7,32.8c0,0.8,0,1.4-0.1,2c-0.3,2.5-1.7,3.9-3.7,4c-2.2,0.2-4.3-1.3-4.6-3.6c-0.5-1.8-0.4-3.7,0.3-5.5
			c0.7-1.9,2.7-3.1,4.7-2.7c1.8,0.3,3.1,1.8,3.2,3.6C38.6,31.5,38.6,32.3,38.7,32.8z"/>
	</g>
</g>
</svg>
