<?xml version="1.0" encoding="utf-8"?>
<!-- Generator: Adobe Illustrator 22.1.0, SVG Export Plug-In . SVG Version: 6.00 Build 0)  -->
<svg version="1.1" id="Layer_1" xmlns="http://www.w3.org/2000/svg" xmlns:xlink="http://www.w3.org/1999/xlink" x="0px" y="0px"
	 viewBox="0 0 52.9 59.7" style="enable-background:new 0 0 52.9 59.7;" xml:space="preserve">
<title>jsIcon</title>
<g id="Layer_2_2_">
	<g id="icons">
		<path d="M26.2,59.7c-3.2-1.6-6.4-3.3-9.4-5.3l0-0.3c0.7-0.2,1.4-0.5,2-0.8c1.2-1,2.9-0.9,4,0.2c1,0.8,2.2,1.3,3.3,2
			c0.4,0.3,1,0.3,1.4,0l20.8-12c0.5-0.2,0.8-0.7,0.7-1.3c0-7.9,0-15.9,0-23.8c0-0.6-0.3-1.1-0.7-1.3c-6.9-3.9-13.8-7.9-20.7-11.9
			c-0.4-0.3-1-0.3-1.4,0c-6.9,4-13.8,8-20.7,11.9c-0.5,0.2-0.8,0.8-0.8,1.3c0,7.9,0,15.9,0,23.8c0,0.5,0.3,1,0.7,1.3
			c1.8,1,3.5,2.1,5.3,3.1c0.8,0.4,1.6,0.6,2.5,0.7c1.4,0.1,2.7-1.1,2.7-2.5c0-0.1,0-0.1,0-0.2c0-1.6,0-3.1,0-4.6V20.9
			c0-1.3,0.1-1.4,1.4-1.4c0.5,0,1.1,0,1.6,0c0.5,0,1,0.3,1,1v0.4c0,7.7,0,15.4,0,23c0,1.1-0.1,2.1-0.4,3.1c-0.7,2.6-3,4.3-5.6,4.3
			c-2,0-3.9-0.5-5.5-1.5c-1.8-1-3.5-2-5.2-3c-1.6-0.8-2.5-2.5-2.4-4.3c0-8.1,0-16.1,0-24.2c-0.1-1.8,0.9-3.5,2.5-4.4l21-12.1
			c1.5-1,3.4-1,5,0l21,12.2c1.5,0.8,2.5,2.4,2.5,4.1c0,8.2,0,16.4,0,24.6c0,1.7-0.9,3.3-2.5,4.1L29.2,59c-0.5,0.3-1.1,0.5-1.6,0.7
			H26.2z"/>
		<path d="M33.5,17.8c2.4,0,4.8,0.4,7.1,1.2c2.9,1.2,4.8,4,4.9,7.1c0,0.7-0.3,1-0.9,1c-0.9,0-1.8,0-2.7,0c-0.3,0-0.8-0.3-0.8-0.5
			c-0.7-3.4-3.1-4.3-6.1-4.3c-1.6,0-3.2,0.1-4.8,0.3c-0.6,0.1-1.2,0.4-1.8,0.8c-0.9,0.6-1.3,1.7-1.1,2.7c0.1,1,0.9,1.4,1.8,1.6
			c1.5,0.4,3,0.7,4.5,0.9l6.9,1.2c0.4,0.1,0.8,0.2,1.2,0.3c2.6,0.5,4.6,2.6,4.9,5.3c0.5,2.9-0.9,5.8-3.4,7.4c-2.3,1.3-5,2-7.6,1.9
			c-3.1,0.2-6.2-0.3-9.1-1.4c-2.8-1.2-4.6-3.9-4.7-6.9c0-1,0.2-1.3,1.2-1.3c0.8,0,1.6,0,2.4,0c0.3,0,0.8,0.4,0.9,0.7
			c0.4,3.2,2.5,4.3,5.3,4.5c2.4,0.3,4.9,0.2,7.2-0.3c1.5-0.2,2.7-1.4,2.8-3c0.3-1-0.3-2.1-1.4-2.4c-1.3-0.5-2.7-0.8-4.1-1.1
			c-2.7-0.5-5.3-0.8-8-1.2c-0.5-0.1-0.9-0.2-1.4-0.4c-2.3-0.6-4.1-2.7-4.3-5.1c-0.5-2.7,0.7-5.4,3-6.9
			C27.9,18.4,30.7,17.7,33.5,17.8z"/>
	</g>
</g>
</svg>
