<?xml version="1.0" encoding="utf-8"?>
<!-- Generator: Adobe Illustrator 22.1.0, SVG Export Plug-In . SVG Version: 6.00 Build 0)  -->
<svg version="1.1" id="Layer_1" xmlns="http://www.w3.org/2000/svg" xmlns:xlink="http://www.w3.org/1999/xlink" x="0px" y="0px"
	 viewBox="0 0 50.2 59.9" style="enable-background:new 0 0 50.2 59.9;" xml:space="preserve">
<title>mongoIcon</title>
<g id="Layer_2_2_">
	<g id="icons">
		<path d="M33.2,40.8c-2.4,1.5-4.8,3-7.3,4.5c-0.9,0.6-2,0.6-2.8,0L16,40.8l-4.4-4.2C8.4,33.1,6,28.8,4.8,24.2
			c-1.3-5.3-1.4-10.7-0.3-16C5,5.6,6.8,3.5,9.2,2.7C13,1.3,17,0.4,21,0.3c4.6-0.3,9.3,0,13.8,0.9c1.6,0.4,3.2,1,4.9,1.5
			c3.6,1.1,5,3.9,5.4,7.4c0.9,6,0.2,12.1-2,17.7c-1.1,2.3-2.3,4.6-3.8,6.6c-1.1,1.5-2.4,3-3.7,4.3L33.2,40.8z M6.9,14.9
			c0.3,2.4,0.3,4.3,0.6,6.2c1.7,9.9,7.9,16.3,16.3,20.9c0.4,0.2,0.9,0.2,1.3,0c6.4-3.1,11.6-8.3,14.6-14.7c2.1-4.7,2.8-9.9,2.1-15
			c-0.7-5.8-0.6-5.8-6.2-7.5c-5-1.3-10.2-1.7-15.4-1.1c-3.8,0-7.4,0.9-10.8,2.6c-0.8,0.4-1.4,1.2-1.6,2C7.4,10.5,7.2,12.9,6.9,14.9z
			"/>
		<path d="M43.1,56c1.5-1.3,1.5-6.5,0.1-7.5c1.5-0.1,3.1-0.1,4.6,0c1.4,0.2,1.5,1.6,0.4,3.1c1,0.3,1.6,1.5,1.3,2.5c0,0,0,0.1,0,0.1
			c-0.4,1-1.5,1.7-2.6,1.6C45.7,56,44.6,56,43.1,56z M45.1,53.3c0.3,1.2,0.1,2.2,1.6,2.2c0.8,0.1,1.6-0.5,1.6-1.3c0-0.1,0-0.2,0-0.3
			c0-1-0.8-1.7-1.7-1.8c-0.1,0-0.2,0-0.3,0C45.9,52.2,45.5,52.9,45.1,53.3z M46.9,51.6c0.1-0.2,0.8-0.6,0.8-1.1
			c0.1-0.9-0.6-1.4-1.5-1.5c-0.9-0.1-0.9,0.7-0.9,1.3C45.3,50.9,45.4,51.7,46.9,51.6L46.9,51.6z"/>
		<path d="M37,48.7c0,1.8-0.2,3.6-0.1,5.5c0,1.3,1.4,1.7,2.7,1.1c1.6-1.2,2-3.4,0.8-5c-0.2-0.3-0.4-0.5-0.7-0.7l-1-0.8
			c1.6-0.3,3.2,0.8,3.5,2.4c0,0.2,0.1,0.5,0,0.7c0.2,2.1-1.4,4-3.5,4.2c-1.3,0.1-2.6,0-3.9,0c1.3-2.1,0.6-4.3,0.6-6.4
			C35.6,48.3,35.7,48.2,37,48.7z"/>
		<path d="M23.2,55.9c-0.4-0.3-0.3-0.8,0.6-1.3c-1-0.7-1.5-1.5-1-2.5c0.5-1,1.6-1.5,2.6-1.2l2,0.4c-0.9,1.3-1.1,3.5-3.5,3.4l0.2,0.4
			c0.7,0.1,1.4,0.2,2.1,0.3c1.2,0.2,1.7,1.3,0.9,2.2c-0.7,0.7-1.6,1.2-2.6,1.4c-0.8,0-1.5-0.4-1.9-1C22.4,57.7,22.9,56.8,23.2,55.9z
			 M24.9,55.7c-0.7,0.7-1.4,1.1-1.4,1.6c0,0.9,0.8,1.1,1.6,1.1c0.8,0,1.7-0.2,1.6-1.1C26.5,56.8,25.7,56.4,24.9,55.7L24.9,55.7z
			 M26.2,52.7l-1.6-1.4c-0.3,0.4-0.9,0.7-1,1.2c-0.2,0.6,0.2,1.3,0.8,1.5c0.1,0,0.2,0.1,0.4,0C25.2,54,25.5,53.3,26.2,52.7z"/>
		<path d="M21.6,55.9h-1.7c0.1-1.1,0.1-2.2,0-3.3c0-0.3-0.7-0.8-1.2-0.8c-0.4-0.1-0.9,0.6-0.8,1c0,1-0.6,2.2,0.8,3.2h-2.6
			c0.9-1,1.1-3.8-0.2-4.5c1.2-0.3,2.4-0.4,3.7-0.5c0.5,0,1.2,0.7,1.5,1.3c0.3,0.6,0,1.2,0.1,1.7C21.2,54.6,21.4,55.3,21.6,55.9z"/>
		<path d="M15,53.3c0.1,1.4-1,2.6-2.4,2.7c-0.1,0-0.2,0-0.3,0c-1.4,0-2.5-1-2.5-2.4c0-0.1,0-0.2,0-0.3c0.1-1.5,1.3-2.6,2.8-2.5
			c1.3-0.1,2.3,0.9,2.4,2.2C15,53.2,15,53.2,15,53.3z M11,53c0,1.6,0.7,2.6,1.7,2.6c1-0.1,1.2-0.9,1.2-1.7c0-1.4-0.7-2.5-1.7-2.4
			S11,52.3,11,53z"/>
		<path d="M28.3,53.5c-0.1-1.4,1-2.6,2.4-2.6c0.1,0,0.2,0,0.3,0c1.3,0,2.4,1,2.4,2.3c0,0.1,0,0.1,0,0.2c0.1,1.4-1,2.6-2.5,2.7
			c-0.1,0-0.2,0-0.2,0c-1.3,0.1-2.3-0.9-2.4-2.2C28.3,53.8,28.3,53.6,28.3,53.5z M32.2,53.8c0-1.5-0.7-2.6-1.7-2.4
			c-1,0.1-1.2,0.8-1.2,1.7c0,1.5,0.7,2.6,1.7,2.5C32.1,55.5,32.3,54.6,32.2,53.8z"/>
		<path d="M5.3,51.8c-0.6,1.3-0.5,2.9,0.3,4.1H4.5H3.7C3.9,55,4,54,4,53c0-1.1-0.6-1.7-1.7-1.4c0-0.1,0-0.2,0-0.2
			c1-1.1,1.9-0.4,2.9,0.1L5.3,51.8z"/>
		<path d="M5.3,51.8l-0.2-0.2c0.7-0.2,1.7-0.6,2.2-0.4s0.7,1.3,0.9,2c0.2,0.7-0.6,2,1.1,2.8H6.9c0.1-1.1,0.2-2.2,0.2-3.3
			C7,51.6,6.1,51.6,5.3,51.8z"/>
		<path d="M2.2,51.5c0,0.1,0,0.2,0,0.2c-0.8,1.3-0.7,3,0.2,4.2H0.3c0.2-0.7,0.3-1.5,0.3-2.2c-0.1-0.8-0.2-1.7-0.3-2.5L2.2,51.5z"/>
		<path d="M31.9,24.4c-0.4,3.6-2.1,7-4.8,9.5l-1.3,1.2l-0.8-0.5l-0.3-2.9v-1.7l0.3-4.2c0-0.8,0-1.6,0-2.4c0.8,1,1.6,1.4,2.7,0.4
			c0.3-0.3,1-0.1,1.5,0C30.1,23.9,31,24.1,31.9,24.4z"/>
		<path d="M31.9,24.4c-0.9-0.2-1.8-0.5-2.8-0.7c-0.5-0.1-1.2-0.3-1.5,0c-1.1,1-1.9,0.6-2.7-0.4c0-2.5,0-5,0-7.6
			c0.1,0.2,0.2,0.4,0.2,0.6c0.3,1.6,0.6,1.7,2.1,1.5l2.5-0.5l1.1,1l0.3-1C32.1,19.5,32.3,22,31.9,24.4z"/>
		<path d="M21.7,33c-4.2-4.1-5.7-10.2-3.9-15.7l0.3,1.6c0.4,1.4,0.8,2.8,1.2,4.2c0.3,0.9,0.6,1.7,0.8,2.7c0.2,1.5,0.5,3,1,4.5
			C21.7,31,21.9,32,21.7,33z"/>
		<path d="M24.9,25.7l-0.3,4.2c-0.2-0.3-0.4-0.7-0.5-1c-1.6-4-3.1-7.9-4.6-11.9c-0.3-0.8-0.6-1.5-0.8-2.3c0.3-0.7,0.6-1.4,1-2.1
			c0.5,1.1,1.1,2.2,1.6,3.3c1,2.3,1.9,4.6,2.9,6.9c-0.1,0.5-0.1,1,0,1.5C24.3,24.8,24.6,25.2,24.9,25.7z"/>
		<path d="M18.6,14.7c0.3,0.7,0.6,1.5,0.8,2.3c1.5,4,3.1,7.9,4.6,11.9c0.2,0.3,0.3,0.7,0.5,1v1.7c-1,0-1.8-0.8-1.9-1.7
			c-0.1-0.6-0.3-1.2-0.6-1.7c-1.2-2.3-1.9-4.9-2.2-7.5c-0.1-0.9-0.8-1.7-1.7-1.9l-0.3-1.6L18.6,14.7z"/>
		<path d="M31.2,17.2l-0.3,1l-1.1-1l-2.5,0.5c-1.6,0.3-1.9,0.1-2.1-1.5c-0.1-0.2-0.1-0.4-0.2-0.6v-2.3c0.5-0.1,1.1-0.4,1.4-0.2
			c1.2,0.7,2,0.2,2.8-0.6L31.2,17.2z"/>
		<path d="M18.1,18.9c0.9,0.1,1.7,0.9,1.7,1.9c0.3,2.6,1.1,5.1,2.2,7.5c0.3,0.5,0.5,1.1,0.6,1.7c0.1,1,0.9,1.7,1.9,1.7
			c0.1,1,0.2,1.9,0.3,2.9l-0.3,0.8L21.7,33c0.1-1,0-2-0.5-2.9c-0.5-1.4-0.9-2.9-1-4.5c-0.2-0.9-0.5-1.7-0.8-2.7
			C18.9,21.6,18.5,20.2,18.1,18.9z"/>
		<path d="M24.9,13.4v2.3c0,2.5,0,5,0,7.6c0,0.8,0,1.6,0,2.4c-0.3-0.4-0.6-0.9-0.7-1.4c-0.1-0.5-0.1-1,0-1.5
			c0.1-2.3-0.4-4.5-1.5-6.5c-0.8-1.6-1.4-3.4-2.1-5L22,9.1l1,1.1L22.5,11l2,6.5h0.2v-5.9L24.9,13.4z"/>
		<path d="M24.9,13.4l-0.3-1.8c0-1.7,0-3.3,0-5l4.5,6c-0.8,0.8-1.7,1.3-2.8,0.6C26,12.9,25.4,13.3,24.9,13.4z"/>
		<path d="M24.7,6.5c0,1.7,0,3.3,0,5v5.9h-0.2l-1.9-6.4l0.5-0.8l-1-1.1l2.4-2.9c0,0,0.1,0,0.1,0C24.6,6.4,24.7,6.5,24.7,6.5z"/>
		<path d="M20.7,11.2c0.7,1.7,1.3,3.5,2.1,5c1,2,1.5,4.3,1.4,6.5c-1-2.3-1.9-4.6-2.9-6.9c-0.5-1.1-1.1-2.2-1.6-3.3L20.7,11.2z"/>
		<path d="M24.6,35.4l0.3-0.8l0.8,0.5l-0.5,3.8C24.3,38.7,24,37.3,24.6,35.4z"/>
	</g>
</g>
</svg>
