<?xml version="1.0" encoding="utf-8"?>
<!-- Generator: Adobe Illustrator 22.1.0, SVG Export Plug-In . SVG Version: 6.00 Build 0)  -->
<svg version="1.1" id="Layer_1" xmlns="http://www.w3.org/2000/svg" xmlns:xlink="http://www.w3.org/1999/xlink" x="0px" y="0px"
	 viewBox="0 0 59.4 59.1" style="enable-background:new 0 0 59.4 59.1;" xml:space="preserve">
<title>Asset 2</title>
<g id="Layer_2_2_">
	<g id="icons">
		<path d="M30.6,59.1c-0.7-0.2-1.4-0.4-2.1-0.5c-5.6-0.3-10.9-2.4-15.3-5.8C12,51.9,10.9,51,9.8,50c-0.9-1-1.6-2.1-2.1-3.4l0.8,0.6
			l0.2-0.2l-1.3-2.3c1.4,1.3,2.7,2.5,3.9,3.7c2.1,2,4.6,3.6,7.2,4.8c1.4,0.8,2.9,1.4,4.4,1.9c2.5,0.7,5.1,1.1,7.6,1.2
			c7-0.1,13.7-2.8,18.7-7.7c2.1-1.9,3.1-4.3,4.7-6.8c-16.8,0.3-33.3,2.2-49.8,0.9L4,42.3c0.4-0.2,0.7-0.3,1.1-0.4
			c3.4-0.1,6.7-0.2,10.2-0.3c2.5,0,2.3,0.3,2.3-2.4c0-0.2,0-0.5,0.1-0.7l0.2,1.2l0,0V19l-5.2,6.4l-0.5-0.3C17,17.2,22.6,10,28,2.4
			c-3.1-0.1-6.2,0.5-9,1.7c-4.5,2-8.3,5.2-10.9,9.3c-2.1,3-3.7,6.4-4.7,10c-0.2,0.8-0.3,1.6-0.4,2.3c-0.2,1.1-0.5,2.2-0.8,3.2
			c-0.9-2-1-4.3-0.5-6.4c1.8-8.3,7-15.4,14.5-19.4c3-1.5,6.2-2.3,9.5-2.6C26.8,0.4,28,0.2,29.3,0h1c0.8,0.1,1.6,0.1,2.4,0.3
			c2.7,0.4,5.4,0.7,8,1.4C48.6,3.8,53.9,9,57.3,16.4c1.8,4.3,2.4,9,1.9,13.6c-0.2,2.8-0.6,5.5-1.3,8.2c-0.5,1.2-0.3,2.5,0.5,3.5
			c0,0,0,0.2,0,0.4c-1.9,0.2-1.9,0.2-2.8,2c-2.9,5.8-7.9,10.2-14,12.4c-0.6,0.1-1.2,0.4-1.7,0.7c-1.2,0.8-2.6,1.1-4,1
			c-1.3,0-2.7-0.3-3.7,1L30.6,59.1z M43.6,17c0.1,1.3,0.4,2.6,0.9,3.8c1.6,2.8,3.5,5.5,5.2,8.2s3.7,5.6,5.6,8.4h0.3
			c0-0.3,0-0.5,0-0.8c0-0.4,0-0.8,0.1-1.2c0.3-0.6,0.5-1.3,0.6-1.9c0.2-2.5,0.3-5,0.3-7.5c-0.1-2.4-0.5-4.7-1.2-7
			c-0.2-1.2-0.6-2.3-1.2-3.3c-3.2-4.8-6.7-9.2-12.6-11.1c-3.4-1.1-6.9-1.8-10.5-2c0.2,0.4,0.3,0.5,0.5,0.7c3,3.8,5.8,7.6,8.6,11.5
			C41.1,16,41.8,17.5,43.6,17z M20.9,34.8l0.5-0.2c0.5,1,0.7,2.2,1.5,2.8c1.5,1.4,3.4,2.3,5.5,2.6c4.3,0.3,7.7-0.7,9.4-4.5
			c0.7-1.8,1.2-3.7,1.5-5.7c0.5-2.4-0.4-4.8-2.4-6.3c-0.8-0.7-1.7-1.3-2.7-1.9c-1.3-0.8-2.9-1.1-4.4-0.6c-1.5,0.5-2.9,1.1-4.3,1.9
			c-2.9,1.8-4.8,4.8-5.2,8.2c-0.6,3.3,0,6.9,0.1,10.3h6c-1.3-0.9-2.4-1.8-3.5-2.9C22,37.5,20.6,36.5,20.9,34.8L20.9,34.8z M39,16.9
			L29.4,3.1L18.8,17.9L39,16.9z M43.9,24.6c0,0.6,0,0.8,0,1.1c0,3.3,0.2,6.5,0.3,9.8c-0.1,1.2-0.2,2.5-0.5,3.7
			c-0.1,1.1,0,1.7,1.4,1.7c3-0.2,6.1-0.2,9.1-0.2c0.2,0,0.4-0.1,0.6-0.2L43.9,24.6z M41.3,26.9c0-2.2,0.1-4.1,0-6
			c0-0.5-0.6-1.4-1-1.5c-1.8-0.2-3.7,0-5.6,0v0.5C37.9,21.1,40.4,23.7,41.3,26.9z M41.2,34.5c-1.3,2.7-3.3,4.9-5.9,6.4h6.4
			L41.2,34.5z M20.2,20.2v5.4l-0.4-0.5l5.2-5.2L20.2,20.2z"/>
		<path d="M3.4,34.2c-1.2-0.9-1.5-2.5-0.7-3.8C3.7,31.5,3.3,32.9,3.4,34.2z"/>
	</g>
</g>
</svg>
