<svg xmlns="http://www.w3.org/2000/svg" viewBox="0 0 60.17 58.53"><title>psIcon</title><g id="Layer_2" data-name="Layer 2"><g id="text"><path d="M0,58.53V.06L0,0h0L.16,0H60.1l.07,0V58.53ZM18,31.14c.29,0,.52,0,.76,0a19.31,19.31,0,0,0,3.8-.13,12,12,0,0,0,4-1.21,8.37,8.37,0,0,0,4.39-5.3,11.86,11.86,0,0,0,.06-6.2A7.8,7.8,0,0,0,26,12.68a12.53,12.53,0,0,0-4.36-.86c-2.19-.07-4.39,0-6.59.06-.47,0-.94,0-1.41.07s-.53.16-.52.58V41.65c0,.22.08.29.31.3h4c.51,0,.53,0,.53-.54V31.14Zm16,7.7h0v2a.44.44,0,0,0,.27.46,7.34,7.34,0,0,0,1.36.56,14,14,0,0,0,5.76.47,8.52,8.52,0,0,0,3.11-1,5.88,5.88,0,0,0,2.82-3.39,7.51,7.51,0,0,0,.29-3.06,5.7,5.7,0,0,0-1.19-3,8.2,8.2,0,0,0-1.54-1.46,18.51,18.51,0,0,0-2.6-1.57c-.71-.36-1.4-.76-2.09-1.16a4.39,4.39,0,0,1-1.11-.91,1.77,1.77,0,0,1,.21-2.57,2.89,2.89,0,0,1,1.59-.61,7.59,7.59,0,0,1,2,.05,8.74,8.74,0,0,1,3.25,1.05c.38.22.55.12.55-.32,0-1,0-2,0-3,0-.21,0-.42,0-.63a.59.59,0,0,0-.43-.62c-.31-.1-.61-.21-.92-.29a15.6,15.6,0,0,0-4.25-.4,8.7,8.7,0,0,0-3,.61,6.46,6.46,0,0,0-2.83,2.06,6.36,6.36,0,0,0-1,5.73,5.85,5.85,0,0,0,2.1,3,15.47,15.47,0,0,0,2.88,1.77c.59.3,1.17.63,1.74,1a5.58,5.58,0,0,1,1.37,1.09,2,2,0,0,1,.52,1.68,1.89,1.89,0,0,1-1.26,1.52,4.71,4.71,0,0,1-1.7.29,9.88,9.88,0,0,1-4.18-.86c-.47-.21-.91-.48-1.37-.73-.25-.13-.34-.09-.35.21v2Z"/><path d="M18,26.78V16.25l.14,0c1,0,2-.06,3,0a6.5,6.5,0,0,1,2.3.46,4.28,4.28,0,0,1,2.73,3.1,7,7,0,0,1-.08,3.68,4.36,4.36,0,0,1-2.93,3,8.44,8.44,0,0,1-2.73.44l-2.12,0A2.21,2.21,0,0,1,18,26.78Z"/></g></g></svg>