<svg xmlns="http://www.w3.org/2000/svg" viewBox="0 0 61.98 53.25"><title>Asset 6</title><g id="Layer_2" data-name="Layer 2"><g id="text"><path d="M62,25.7v2.06c-1,1.39-1.8,3.09-3.11,4.11a37.87,37.87,0,0,1-6.19,3.57,33.73,33.73,0,0,1-3.57,1.35c.14.65.28,1.18.39,1.72.71,3.57,1,7.14-.33,10.63-1.2,3.28-3.83,4.64-7.24,3.93a19.26,19.26,0,0,1-7.74-3.85c-1-.79-2-1.65-3.08-2.5l-1.83,1.54A22.51,22.51,0,0,1,21,52.79c-4.47,1.26-7.59-.41-8.51-4.82a27.79,27.79,0,0,1,.42-11c-2.65-1.25-5.21-2.31-7.63-3.63A9.94,9.94,0,0,1,0,27.25V25.7a8.36,8.36,0,0,1,3.41-4.65,61.8,61.8,0,0,1,5.7-3.13,31.28,31.28,0,0,1,3.48-1.27c-.17-3.27-.49-6.37-.44-9.47A11.69,11.69,0,0,1,13.4,2.82a4.57,4.57,0,0,1,4-2.63A9.82,9.82,0,0,1,23.32,1.4c2.68,1.53,5.24,3.3,7.93,5L32.93,5A22.74,22.74,0,0,1,41,.43c4.27-1.3,7.27.37,8.36,4.66a12.72,12.72,0,0,1,.48,3.67c-.12,2.62-.44,5.23-.66,7.62,2.64,1.25,5.33,2.43,7.92,3.79A9.63,9.63,0,0,1,62,25.7ZM31,36.22h0c1.54,0,3.09.08,4.62,0a2.22,2.22,0,0,0,1.54-.84q2.47-3.9,4.72-7.92a2.07,2.07,0,0,0,0-1.72q-2.28-4-4.76-7.9A2,2,0,0,0,35.67,17c-3.08-.07-6.16-.08-9.24,0A2.34,2.34,0,0,0,24.8,18q-2.43,3.83-4.64,7.81a2.07,2.07,0,0,0,0,1.72c1.46,2.61,3.05,5.14,4.54,7.73a1.93,1.93,0,0,0,1.9,1C28.07,36.2,29.53,36.22,31,36.22Zm2,8.71a22.5,22.5,0,0,0,8.65,5.45c3,.9,4.67-.08,5.47-3.08.84-3.17.35-6.29-.35-9.39-.06-.27-.76-.6-1.12-.56-2.29.27-4.57.62-6.85,1a1.72,1.72,0,0,0-1,.5C36.18,40.82,34.6,42.85,33,44.93ZM13.67,19.05c-3.55,1-7,2.28-9.66,4.86-1.78,1.7-1.88,3.23-.22,5,2.68,2.88,6.2,4.27,9.85,5.35,1-2.47,2-4.82,3-7.18a1.27,1.27,0,0,0,0-.86C15.68,23.88,14.7,21.53,13.67,19.05ZM15.5,37.47A20.92,20.92,0,0,0,15,47.59c.54,2.43,2,3.46,4.41,3,3.93-.72,6.93-3.09,9.78-5.61-1.71-2.08-3.3-4-4.93-6a1.82,1.82,0,0,0-1.07-.53C20.68,38.14,18.18,37.82,15.5,37.47Zm31-21.6c.86-3.58,1.4-7.11.32-10.66C46.07,2.84,44.62,2,42.27,2.62A21.61,21.61,0,0,0,33,8.31c1.65,2,3.22,4,4.82,6a1.52,1.52,0,0,0,.83.51C41.17,15.17,43.74,15.5,46.47,15.87ZM29.15,8.38a22.11,22.11,0,0,0-9.34-5.64c-2.52-.65-4,.14-4.65,2.63-1,3.53-.48,7,.44,10.46a1.42,1.42,0,0,0,.44.08c2.4-.36,4.8-.7,7.2-1.1a2.09,2.09,0,0,0,1.14-.67C26,12.29,27.49,10.39,29.15,8.38ZM48.49,34.13a23.56,23.56,0,0,0,9-4.45c2.51-2.18,2.53-4.14,0-6.26a22.59,22.59,0,0,0-9.09-4.31c-1,2.39-2,4.7-2.93,7a1.19,1.19,0,0,0,0,.83C46.41,29.31,47.43,31.65,48.49,34.13ZM40,35.79l6-1-2.18-5.34Zm-5.12,2.9H27.3l3.8,4.45ZM16.17,35,22,35.9l-3.78-6.25ZM43.74,23.63l2-5.29-5.78-1Zm-25.5.06L22,17.42l-5.69,1Zm9.16-9.25h7.3L31,10.15c-1,1.13-1.91,2.14-2.8,3.17C28,13.6,27.78,13.92,27.4,14.44Z"/><path d="M36.07,26.57a5.24,5.24,0,0,1-5.29,5.29,5.28,5.28,0,1,1,0-10.55A5.12,5.12,0,0,1,36.07,26.57Z"/></g></g></svg>