<svg xmlns="http://www.w3.org/2000/svg" viewBox="0 0 52.16 58.93"><title>sqlIcon</title><g id="Layer_2" data-name="Layer 2"><g id="text"><path d="M45.66,58.93H6.5c-1.43-.55-1.82-1.64-1.8-3.09.06-3.46,0-6.93,0-10.4v-.58H3.43A3.28,3.28,0,0,1,0,41.45q0-8.49,0-17a3.62,3.62,0,0,1,.39-1.62,3.12,3.12,0,0,1,3-1.76c.43,0,.86,0,1.32,0V2.62A2.41,2.41,0,0,1,5.4.69,8.17,8.17,0,0,1,6.5,0H35.31a6.57,6.57,0,0,1,.62.55c.66.73,1.31,1.47,2,2.21Q42.36,7.88,46.83,13a2.22,2.22,0,0,1,.62,1.61c0,2,0,4,0,6,0,.16,0,.33,0,.53.44,0,.83,0,1.22,0a5.34,5.34,0,0,1,1.2.17,3.26,3.26,0,0,1,2.27,3.31V41.36a4.89,4.89,0,0,1,0,.66,3.2,3.2,0,0,1-2.91,2.79c-.57,0-1.14,0-1.76,0v.68c0,3.6,0,7.21,0,10.81a2.42,2.42,0,0,1-.69,1.93A8.17,8.17,0,0,1,45.66,58.93ZM33.79,2.31H7.52c-.41,0-.53.11-.53.53Q7,11.7,7,20.57c0,.16,0,.33,0,.48H45.17V15.89c0-.62,0-.62-.61-.63H35.24c-1.06,0-1.44-.39-1.44-1.44q0-5.44,0-10.87ZM7,44.89v.49q0,5,0,10.07c0,.43.11.56.55.55q18.54,0,37.08,0c.43,0,.56-.12.56-.56,0-3.34,0-6.68,0-10v-.54Zm23.46-5.32a1.18,1.18,0,0,1,.1-.18l.11-.08A7.32,7.32,0,0,0,34.27,34a10.91,10.91,0,0,0,.1-3.65A8.05,8.05,0,0,0,31,24.52a8.2,8.2,0,0,0-5.37-1.3,7.9,7.9,0,0,0-7.12,5.64A11.78,11.78,0,0,0,18.17,34,7.78,7.78,0,0,0,25,40.79a10.59,10.59,0,0,1,1.78.36c1.26.43,2.49,1,3.74,1.4,1,.35,1.95.64,3,1l1.1-3Zm-26,.26c.65.21,1.28.46,1.92.62a10.78,10.78,0,0,0,6.48-.23,4.78,4.78,0,0,0,3.28-3.84,4.68,4.68,0,0,0-2.76-5.24c-1.22-.6-2.48-1.11-3.71-1.68A1.46,1.46,0,0,1,9,27.05a2,2,0,0,1,1.1-.57,11.35,11.35,0,0,1,2.47,0,14.29,14.29,0,0,1,2.1.57c.24-.86.46-1.74.73-2.6.12-.38,0-.52-.34-.65a11.52,11.52,0,0,0-4.62-.61A6.61,6.61,0,0,0,5.77,25.3,4.63,4.63,0,0,0,5.63,31a7.67,7.67,0,0,0,3,2c.8.33,1.6.64,2.38,1A1.82,1.82,0,0,1,12.22,36c-.09.82-.56,1.32-1.58,1.55a7.82,7.82,0,0,1-4.2-.43c-.4-.13-.78-.3-1.21-.47ZM40.93,37.3v-.68c0-4.22,0-8.44,0-12.66,0-.42-.11-.54-.53-.53-.95,0-1.91,0-2.87,0-.4,0-.53.09-.53.52,0,5.36,0,10.73,0,16.09,0,.46.15.54.56.54,1.85,0,3.7,0,5.55,0,1.4,0,2.8,0,4.19,0,.14,0,.4-.14.4-.23,0-1,0-2,0-3Z"/><path d="M30.38,32a7.66,7.66,0,0,1-1,4,3.6,3.6,0,0,1-6.3,0,7.57,7.57,0,0,1-.92-4.57,7,7,0,0,1,.8-3,3.64,3.64,0,0,1,3.16-2.1,3.55,3.55,0,0,1,3.34,1.95A7.35,7.35,0,0,1,30.38,32Z"/></g></g></svg>