<svg id="Layer_3" data-name="Layer 3" xmlns="http://www.w3.org/2000/svg" viewBox="0 0 1202.49 369.04"><defs><style>.cls-1{stroke:#fff;}.cls-1,.cls-2{stroke-miterlimit:10;}.cls-2{fill:#fff;stroke:#000;}</style></defs><title>AtaraxyLogoLongAttemptOne</title><path class="cls-1" d="M527.44,426.15s25.7-28.64,14.72-51.66-35.33-29.44-35.33-29.44l-12.31-4s-6.7-6.16-140,0l-35.07,87.8H240l-45.5-101.45h-65L82.58,432.84H39L19.67,478.08l41.76-.54L0,614.32H59L120.85,476.2h12.58V662H186.7V476.2h17.13l61.29,137.58h57.55L261.91,476.2h39.35l-13.65,34.26h56.74L358,476.2h54.6L427.06,511l57.28.27L470.16,476.2H505l43.63,34.53h83.78ZM140.66,431.5l21.14-47.64,20.88,47.64ZM376.74,427l7.5-19.27L392.53,427Zm69.06-11.51-10.17-23.55L486,393.76Z" transform="translate(0.77 -293.42)"/><polygon class="cls-1" points="758.14 0.5 819.97 0.5 856.64 58.85 811.67 87.22 758.14 0.5"/><polygon class="cls-1" points="914.73 0.5 950.86 0.5 925.16 17.36 914.73 0.5"/><polygon class="cls-1" points="938.82 294.58 933.82 286.01 978.43 257.82 1001.27 294.58 938.82 294.58"/><polygon class="cls-1" points="788.92 294.58 888.49 294.58 1200.77 96.5 1103.7 96.5 1054.8 127.2 1014.48 61.88 969.86 90.08 1009.84 155.39 788.92 294.58"/><polygon class="cls-1" points="578.71 153.96 619.75 187.15 648.31 152.18 686.49 178.23 686.49 216.78 737.17 216.78 848.16 146.47 888.14 210.71 932.79 183.59 893.49 117.2 1077.64 0.5 985.21 0.5 739.67 153.61 739.67 61.88 653.3 61.88 578.71 153.96"/><polygon class="cls-2" points="670.08 125.06 686.49 104.36 686.49 135.76 670.08 125.06"/></svg>