<?xml version="1.0" encoding="utf-8"?>
<!-- Generator: Adobe Illustrator 21.1.0, SVG Export Plug-In . SVG Version: 6.00 Build 0)  -->
<svg version="1.1" xmlns="http://www.w3.org/2000/svg" xmlns:xlink="http://www.w3.org/1999/xlink" x="0px" y="0px"
	 viewBox="0 0 1024 768" style="enable-background:new 0 0 1024 768;" xml:space="preserve">
<style type="text/css">
	.st0{fill:none;stroke:#000000;stroke-width:8.2282;stroke-miterlimit:10;}
	.st1{stroke:#000000;stroke-width:8.2282;stroke-miterlimit:10;}
</style>
<g id="drawing">
	<path id="TailOutline" class="st0" d="M655.3,113.5c4.4-3.1,131.4-100.2,266,30.2c0,0-282.5-86.4-405.9,215.3
		c0,0,63.1-89.1,171.4-72.7c0,0-100.1,24.7-187.9,207.1c0,0-123.4,231.8-396.3,200.2V614c0,0,91.9,16.5,138.5-113.8
		c0,0,35.7-323.6,307.2-407.3c0,0,96.8-38.4,180.4-12.4"/>
	<path class="st1" d="M311.4,292v28.6l61-21.9L355.9,384c0,0,58.5-19.6,74.1-7.7c0,0-31.1,94.2-15.5,103.3l59.4-18.3l-14.6,43.9
		l44.4-21.2c0,0-116.6,238.8-400.9,209.6V614c0,0,100.6,6.4,138.5-113.8C241.2,500.2,273.3,332.9,311.4,292z"/>
</g>
<g id="Layer_2">
</g>
</svg>
